<svg version="1" xmlns="http://www.w3.org/2000/svg" width="1440" height="1440" viewBox="0 0 1080.000000 1080.000000"><path d="M275 188c-1.9.5-5.6 1.1-8.2 1.4-2.5.3-5.8 1-7.2 1.6-1.4.5-2.6.8-2.6.5 0-.2-1.9.3-4.2 1.1-2.4.9-4.7 1.7-5.3 1.8-9 2-25.7 10.3-35.1 17.4-20.6 15.6-32.1 32.2-45 65.2-13 33.4-49.3 125.2-50.4 127.5-.5 1.1-3.9 9.6-7.5 19-6.8 17.3-16 40.6-48.8 123.5-10.2 25.6-23.5 59.3-29.7 75-6.1 15.7-11.5 29.4-12 30.5-.5 1.1-1.9 4.2-3.1 7C10.6 671.6 5 690.6 2.3 706c-2.1 11.8-2.4 41.1-.7 52.9 2.8 18.4 8.7 36.9 15.7 49.4 4.8 8.6 14.9 20.9 27.7 33.8 23.8 24 47.3 38.6 73 45.4 3.2.8 12.4 2.6 15.5 2.9 2.2.3 7.2.9 11 1.3 9.1 1 779.8 1 789 0 18.2-2.1 43.6-7.9 47.3-10.9.6-.6 1.2-.8 1.2-.4 0 1.3 19.3-9.4 27.1-15 20.9-15 45.8-44.7 56.7-67.6 4.2-8.7 9.3-24.4 11.1-33.8.6-3 1.3-6.9 1.7-8.5 1-5.1 1.2-36.6.3-43.5-2.9-21.1-8.6-41.3-17.4-61.5-2.8-6.6-11.6-28.4-19.5-48.5-7.8-20.1-14.8-37.9-15.5-39.5-.7-1.7-1.8-4.6-2.5-6.5-.7-1.9-1.8-4.9-2.5-6.5-.7-1.7-3-7.3-5-12.5-10.1-26.2-19.8-50.8-21.1-53.7-.8-1.7-1.4-3.6-1.4-4.2 0-.6-.5-1.9-1-2.9-.6-.9-3.7-8.5-6.9-16.7-3.2-8.3-9.7-25.1-14.5-37.5-4.8-12.4-9.1-23.4-9.6-24.5-.5-1.1-5.5-13.7-11-28-5.6-14.3-10.5-26.9-11-28-.5-1.1-1.9-4.5-3-7.5s-2.5-6.4-3-7.5c-.4-1.1-5.6-14.2-11.4-29-12.7-32.6-13.3-34-20-45.8-7.6-13.6-14-22-23.6-31.8-19.6-19.8-34.9-26.7-69.5-31.4-8.2-1.1-56-1.4-270.5-1.3-143.3 0-262.1.4-264 .8zm520.4 33.4c7 .6 11.2 1.3 19.2 3 10.9 2.3 25.2 8.6 31.9 14.1 8.8 7.2 12.8 11.9 20.5 24.4 10 16.1 16 29 28.5 61.1 4.6 11.8 11.2 28.5 14.5 37 3.4 8.5 7.9 20 10 25.5 2.1 5.5 8.6 22.1 14.5 37 11.7 29.7 28.9 73.7 42.5 108.5 4.8 12.4 11.7 29.9 15.3 39 5.7 14.5 15.6 39.9 23.4 60 1.4 3.6 3.1 7.8 3.8 9.5 13.6 31.9 21.5 56.4 23.3 72.5.9 7.5.8 25.2-.1 32.5-3.7 30-23.4 65.4-46.2 83.4-16.1 12.7-36.3 21.4-60.5 26.1-17.9 3.5-19.8 3.6-401.5 3.4-206.2 0-377.7-.4-381-.8-32.6-4.1-59.7-16.8-81.1-38.1C56.7 803.9 46.5 785.9 41 764c-2.7-10.9-3.2-14.3-3.5-26.5-.2-10.1.1-14.5 2-27.5.9-5.9 5-18.2 12-36 3.2-8 11.8-30 19.1-49 7.4-19 13.8-35.4 14.3-36.5.5-1.1 2.3-5.6 4-10 1.7-4.4 5.5-14.3 8.5-22 3-7.7 7.1-18.3 9.1-23.5 2.1-5.2 10.9-28 19.7-50.5 8.8-22.6 19.1-48.9 22.8-58.5 6.4-16.4 8.7-22.4 20.3-52 2.5-6.3 8.9-22.8 14.2-36.5 5.3-13.8 10.6-27.3 11.7-30 1.1-2.8 2.6-6.6 3.3-8.5 3.6-9.6 10.2-25 12.3-29 8.7-16 23.3-30.6 36.2-36.3 6.8-3 21.1-7.6 25.9-8.3 2-.3 4.2-.7 4.9-.9.7-.3 4-.7 7.5-1.1 3.4-.3 6.3-.7 6.4-.8.7-.5 497.6.2 503.7.8z"/><path d="M538.4 263.2c-16.9 20.9-30 48.5-34.8 73.8-2.8 14.8-3.4 21.2-3.1 35.5.3 13.8 1.2 23.2 4.1 40 .9 5.5 5.3 23 7.4 29.4 1.1 3.5 2 6.6 2 7 0 .3-1.7-1.9-3.7-4.9-4.9-7.4-18.3-20.7-26.3-26.2-34.5-23.9-80.6-29-120.8-13.4-21.3 8.2-40.9 22.2-57.2 40.9l-2.5 2.9 5.4-.7c3-.4 6.3-.9 7.5-1.1 8.6-1.6 35.7-2.2 48.6-1 25 2.3 50.2 10.5 71.7 23.2 16.3 9.6 33.2 25.2 43.7 40.2 14.2 20.3 23.6 45.7 25.2 68.5l.6 7.9-8.3-6.5c-19.3-14.8-44.9-29.4-67.9-38.6-27.8-11-52.2-15.9-79.5-15.9-13.3.1-18.3.4-31.5 2.2-39.9 5.4-79.3 26.3-101.9 54.1-14 17.1-22.4 33.7-27.5 54.2-3.7 14.9-5 30.3-3.5 39.8.4 2.2 1 5.9 1.3 8.2.3 2.3 1.5 7.8 2.6 12.3 9.5 37.4 35.4 69 72.5 88.6 19.2 10.2 40.3 16.8 61 19.2 8 .9 33.1.8 42.8-.1 45.5-4.4 87.5-21.6 130.2-53.2 8.5-6.3 22.7-17.7 28.5-22.9 2-1.7 7-6.2 11.2-9.9l7.7-6.8 6.3 5.7c3.5 3.1 7.9 7.1 9.8 8.9 10.9 9.7 33.6 27.3 46.9 36.3 32 21.4 68.9 36.1 102.6 40.6 2.2.3 6.9 1 10.5 1.5 7.1.9 42.1.7 48.5-.4 41.6-6.9 78.1-26.5 101.9-54.8 15.7-18.7 26.9-43.6 30.4-67.2.9-6.1.9-26.5 0-32-1.6-10.2-4.3-20.9-6.8-27-.4-1.1-1.8-4.5-3-7.5-3.4-8.4-11.8-22.7-17.9-30.3-4.5-5.7-18-19.2-23-22.9-3.1-2.4-5.8-4.5-6.1-4.8-1.2-1.4-14.2-9.1-21-12.5-17.7-8.9-42.9-15.9-65.5-18.2-8.9-.9-30.7-.9-40.5 0-19 1.9-43.3 8.4-64.1 17.2-12.9 5.5-30.3 14.2-35.1 17.6-1.4 1.1-2.9 1.9-3.2 1.9-1 0-19.4 12.7-26.3 18.1-3.5 2.7-6.5 4.9-6.7 4.9-.2 0-.2-2.4.1-5.3 3.4-35.7 18.3-67.2 42.9-90.7 11.8-11.3 21.1-17.8 36.1-25.4 14.2-7.2 34.9-14.1 47.9-16 2.2-.4 5.1-.9 6.4-1.2 1.4-.4 12-.8 23.5-.9 18.8-.3 33.9.7 43.3 2.9l2.3.5-2.1-2.8c-3.4-4.9-20.5-20.5-28.2-25.8-23.1-15.9-49.3-24.4-75.8-24.6-5.8 0-22.5 1.2-24.2 1.8-.7.2-2.4.6-3.8.9-27.2 4.6-58.5 24.3-72.5 45.4-1.5 2.3-2.9 4.1-3.1 3.9-.2-.1.8-4.1 2.2-8.7 7.1-24.4 10.9-49.3 10.7-70.5 0-8.9-.9-20.6-1.8-23.5-.2-.8-.6-3.1-.9-5-3.6-24.7-20.1-59.9-36.8-78.3l-4.3-4.8-5.1 6.3zM368.5 600.4c13.8 2 31.6 7.7 46.5 14.9 20.3 9.7 46.9 27.9 64 43.6l5.5 5.1-2.6 2.2c-1.4 1.3-7.3 6-13 10.6s-11.1 8.9-11.9 9.5c-6.9 5.6-28.2 18.6-40.5 24.7-26 13.1-44.7 18.1-65 17.5-6.6-.2-12.9-.6-14-.8-2.1-.5-10-1.8-11.2-1.9-1.2-.1-13.4-4.4-16.8-5.9-5.3-2.3-15.9-9.7-19.3-13.3-11.1-11.9-17.4-26.8-17.4-41.6-.2-21.7 12.6-42.3 33.2-53.8 16.7-9.3 42.3-13.7 62.5-10.8zm386.1 1.5c29.2 5.6 49.3 21.7 57 45.5 6.9 21.2.9 43.5-16.1 60.1-10.3 10.1-26.9 17.6-44 19.9-10.5 1.5-27 1.5-35.5 0-17.1-3-40.7-12.5-60.8-24.5-8.5-5.1-32.7-22-36.7-25.6-1.1-1-4.5-3.8-7.5-6.3-9.2-7.5-8.9-6.8-4.4-10.7 2.1-1.9 5.3-4.7 6.9-6.2 22.5-19.9 56.4-39.9 81.5-48 21.2-6.9 39.2-8.2 59.6-4.2z"/></svg>